<svg xmlns="http://www.w3.org/2000/svg" xmlns:xlink="http://www.w3.org/1999/xlink" width="500" zoomAndPan="magnify" viewBox="0 0 375 374.999991" height="500" preserveAspectRatio="xMidYMid meet" version="1.0"><defs><g/><clipPath id="cda69c8e7c"><path d="M 55.867188 151.402344 L 72.019531 151.402344 L 72.019531 222.816406 L 55.867188 222.816406 Z M 55.867188 151.402344 " clip-rule="nonzero"/></clipPath><clipPath id="3f48cc0686"><path d="M 121.242188 170.566406 L 137.394531 170.566406 L 137.394531 203.707031 L 121.242188 203.707031 Z M 121.242188 170.566406 " clip-rule="nonzero"/></clipPath><clipPath id="dbcd0c9108"><path d="M 74.871094 178.136719 L 102.589844 178.136719 L 102.589844 194.292969 L 74.871094 194.292969 Z M 74.871094 178.136719 " clip-rule="nonzero"/></clipPath><clipPath id="1595a6f879"><path d="M 121.242188 206.523438 L 155.484375 206.523438 L 155.484375 222.675781 L 121.242188 222.675781 Z M 121.242188 206.523438 " clip-rule="nonzero"/></clipPath><clipPath id="cd81bf3d79"><path d="M 102.386719 166.226562 L 118.542969 166.226562 L 118.542969 222.816406 L 102.386719 222.816406 Z M 102.386719 166.226562 " clip-rule="nonzero"/></clipPath><clipPath id="848a90fcc4"><path d="M 85.113281 151.394531 L 137.449219 151.394531 L 137.449219 167.550781 L 85.113281 167.550781 Z M 85.113281 151.394531 " clip-rule="nonzero"/></clipPath><clipPath id="9e7b718066"><path d="M 57.21875 150.511719 L 73.371094 150.511719 L 73.371094 221.925781 L 57.21875 221.925781 Z M 57.21875 150.511719 " clip-rule="nonzero"/></clipPath><clipPath id="227679e4b1"><path d="M 122.210938 169.425781 L 138.363281 169.425781 L 138.363281 202.570312 L 122.210938 202.570312 Z M 122.210938 169.425781 " clip-rule="nonzero"/></clipPath><clipPath id="240a2ec354"><path d="M 75.867188 176.769531 L 105.984375 176.769531 L 105.984375 192.925781 L 75.867188 192.925781 Z M 75.867188 176.769531 " clip-rule="nonzero"/></clipPath><clipPath id="350dd8b1f8"><path d="M 122.210938 205.328125 L 156.453125 205.328125 L 156.453125 221.480469 L 122.210938 221.480469 Z M 122.210938 205.328125 " clip-rule="nonzero"/></clipPath><clipPath id="d3d271fdc6"><path d="M 103.589844 166.226562 L 119.742188 166.226562 L 119.742188 221.484375 L 103.589844 221.484375 Z M 103.589844 166.226562 " clip-rule="nonzero"/></clipPath><clipPath id="d0d89a0ac5"><path d="M 86.03125 150.503906 L 138.367188 150.503906 L 138.367188 166.65625 L 86.03125 166.65625 Z M 86.03125 150.503906 " clip-rule="nonzero"/></clipPath></defs><rect x="-37.5" width="450" fill="#ffffff" y="-37.499999" height="449.999989" fill-opacity="1"/><rect x="-37.5" width="450" fill="#132d46" y="-37.499999" height="449.999989" fill-opacity="1"/><g clip-path="url(#cda69c8e7c)"><path fill="#ffffff" d="M 55.867188 151.402344 L 72.019531 151.402344 L 72.019531 222.832031 L 55.867188 222.832031 Z M 55.867188 151.402344 " fill-opacity="1" fill-rule="nonzero"/></g><g clip-path="url(#3f48cc0686)"><path fill="#ffffff" d="M 121.242188 170.566406 L 137.394531 170.566406 L 137.394531 203.695312 L 121.242188 203.695312 Z M 121.242188 170.566406 " fill-opacity="1" fill-rule="nonzero"/></g><g clip-path="url(#dbcd0c9108)"><path fill="#ffffff" d="M 74.871094 194.292969 L 74.871094 178.136719 L 102.570312 178.136719 L 102.570312 194.292969 Z M 74.871094 194.292969 " fill-opacity="1" fill-rule="nonzero"/></g><g clip-path="url(#1595a6f879)"><path fill="#ffffff" d="M 121.242188 222.675781 L 121.242188 206.523438 L 155.503906 206.523438 L 155.503906 222.675781 Z M 121.242188 222.675781 " fill-opacity="1" fill-rule="nonzero"/></g><g clip-path="url(#cd81bf3d79)"><path fill="#ffffff" d="M 102.386719 166.226562 L 118.542969 166.226562 L 118.542969 222.828125 L 102.386719 222.828125 Z M 102.386719 166.226562 " fill-opacity="1" fill-rule="nonzero"/></g><g fill="#ffffff" fill-opacity="1"><g transform="translate(166.817396, 168.171743)"><g><path d="M 10.375 -5.921875 L 4.328125 -5.921875 L 4.328125 0 L 1.546875 0 L 1.546875 -13.796875 L 4.328125 -13.796875 L 4.328125 -8.265625 L 10.375 -8.265625 L 10.375 -13.796875 L 13.15625 -13.796875 L 13.15625 0 L 10.375 0 Z M 10.375 -5.921875 "/></g></g></g><g fill="#ffffff" fill-opacity="1"><g transform="translate(181.516553, 168.171743)"><g><path d="M 0.53125 0 L 5.46875 -13.796875 L 8.40625 -13.796875 L 13.34375 0 L 10.5625 0 L 9.4375 -3.203125 L 4.484375 -3.203125 L 3.328125 0 Z M 5.09375 -5.625 L 8.78125 -5.625 L 6.953125 -11.109375 Z M 5.09375 -5.625 "/></g></g></g><g fill="#ffffff" fill-opacity="1"><g transform="translate(195.385304, 168.171743)"><g><path d="M 7.171875 -14 C 8.203125 -14 9.125 -13.789062 9.9375 -13.375 C 10.75 -12.957031 11.40625 -12.390625 11.90625 -11.671875 C 12.40625 -10.953125 12.703125 -10.140625 12.796875 -9.234375 L 9.875 -9.234375 C 9.78125 -9.710938 9.613281 -10.132812 9.375 -10.5 C 9.144531 -10.875 8.835938 -11.164062 8.453125 -11.375 C 8.078125 -11.59375 7.617188 -11.703125 7.078125 -11.703125 C 6.441406 -11.703125 5.890625 -11.546875 5.421875 -11.234375 C 4.953125 -10.921875 4.59375 -10.414062 4.34375 -9.71875 C 4.101562 -9.03125 3.984375 -8.117188 3.984375 -6.984375 C 3.984375 -5.265625 4.253906 -4.019531 4.796875 -3.25 C 5.347656 -2.476562 6.109375 -2.09375 7.078125 -2.09375 C 7.617188 -2.09375 8.078125 -2.210938 8.453125 -2.453125 C 8.835938 -2.703125 9.144531 -3.03125 9.375 -3.4375 C 9.613281 -3.84375 9.78125 -4.285156 9.875 -4.765625 L 12.796875 -4.765625 C 12.710938 -4.117188 12.550781 -3.492188 12.3125 -2.890625 C 12.082031 -2.296875 11.75 -1.765625 11.3125 -1.296875 C 10.875 -0.835938 10.316406 -0.472656 9.640625 -0.203125 C 8.960938 0.0546875 8.140625 0.1875 7.171875 0.1875 C 5.878906 0.1875 4.765625 -0.109375 3.828125 -0.703125 C 2.898438 -1.304688 2.179688 -2.144531 1.671875 -3.21875 C 1.171875 -4.300781 0.921875 -5.566406 0.921875 -7.015625 C 0.921875 -8.460938 1.171875 -9.707031 1.671875 -10.75 C 2.171875 -11.789062 2.890625 -12.59375 3.828125 -13.15625 C 4.765625 -13.71875 5.878906 -14 7.171875 -14 Z M 7.171875 -14 "/></g></g></g><g fill="#ffffff" fill-opacity="1"><g transform="translate(209.091788, 168.171743)"><g><path d="M 13.171875 0 L 10.140625 0 L 6.484375 -6.421875 L 4.4375 -3.96875 L 4.4375 0 L 1.546875 0 L 1.546875 -13.796875 L 4.4375 -13.796875 L 4.4375 -7.484375 L 9.46875 -13.796875 L 12.671875 -13.796875 L 8.484375 -8.453125 Z M 13.171875 0 "/></g></g></g><g fill="#ffffff" fill-opacity="1"><g transform="translate(166.817396, 186.921741)"><g><path d="M 0.359375 -11.328125 L 0.359375 -13.796875 L 11.40625 -13.796875 L 11.40625 -11.328125 L 7.328125 -11.328125 L 7.328125 0 L 4.53125 0 L 4.53125 -11.328125 Z M 0.359375 -11.328125 "/></g></g></g><g fill="#ffffff" fill-opacity="1"><g transform="translate(178.576726, 186.921741)"><g><path d="M 10.375 -5.921875 L 4.328125 -5.921875 L 4.328125 0 L 1.546875 0 L 1.546875 -13.796875 L 4.328125 -13.796875 L 4.328125 -8.265625 L 10.375 -8.265625 L 10.375 -13.796875 L 13.15625 -13.796875 L 13.15625 0 L 10.375 0 Z M 10.375 -5.921875 "/></g></g></g><g fill="#ffffff" fill-opacity="1"><g transform="translate(193.275883, 186.921741)"><g><path d="M 1.546875 0 L 1.546875 -13.796875 L 11.03125 -13.796875 L 11.015625 -11.453125 L 4.34375 -11.453125 L 4.34375 -8.109375 L 10.140625 -8.109375 L 10.140625 -5.796875 L 4.328125 -5.796875 L 4.328125 -2.375 L 11.125 -2.375 L 11.125 0 Z M 1.546875 0 "/></g></g></g><g fill="#ffffff" fill-opacity="1"><g transform="translate(166.817396, 205.67174)"><g><path d="M 1.546875 -13.796875 L 4.359375 -13.796875 L 4.359375 -2.359375 L 10.34375 -2.359375 L 10.34375 0 L 1.546875 0 Z M 1.546875 -13.796875 "/></g></g></g><g fill="#ffffff" fill-opacity="1"><g transform="translate(177.841763, 205.67174)"><g><path d="M 7.28125 0.1875 C 5.976562 0.1875 4.847656 -0.09375 3.890625 -0.65625 C 2.941406 -1.226562 2.207031 -2.039062 1.6875 -3.09375 C 1.175781 -4.144531 0.921875 -5.40625 0.921875 -6.875 C 0.921875 -8.34375 1.179688 -9.609375 1.703125 -10.671875 C 2.222656 -11.734375 2.960938 -12.550781 3.921875 -13.125 C 4.878906 -13.707031 6 -14 7.28125 -14 C 8.5625 -14 9.675781 -13.710938 10.625 -13.140625 C 11.570312 -12.566406 12.304688 -11.75 12.828125 -10.6875 C 13.347656 -9.625 13.609375 -8.351562 13.609375 -6.875 C 13.609375 -5.414062 13.347656 -4.15625 12.828125 -3.09375 C 12.316406 -2.039062 11.585938 -1.226562 10.640625 -0.65625 C 9.691406 -0.09375 8.570312 0.1875 7.28125 0.1875 Z M 7.28125 -2.09375 C 7.957031 -2.09375 8.539062 -2.253906 9.03125 -2.578125 C 9.53125 -2.898438 9.910156 -3.410156 10.171875 -4.109375 C 10.441406 -4.804688 10.578125 -5.710938 10.578125 -6.828125 C 10.578125 -7.984375 10.441406 -8.914062 10.171875 -9.625 C 9.898438 -10.34375 9.515625 -10.867188 9.015625 -11.203125 C 8.523438 -11.535156 7.945312 -11.703125 7.28125 -11.703125 C 6.613281 -11.703125 6.03125 -11.535156 5.53125 -11.203125 C 5.039062 -10.867188 4.65625 -10.34375 4.375 -9.625 C 4.101562 -8.90625 3.96875 -7.972656 3.96875 -6.828125 C 3.96875 -5.703125 4.101562 -4.789062 4.375 -4.09375 C 4.65625 -3.40625 5.039062 -2.898438 5.53125 -2.578125 C 6.03125 -2.253906 6.613281 -2.09375 7.28125 -2.09375 Z M 7.28125 -2.09375 "/></g></g></g><g fill="#ffffff" fill-opacity="1"><g transform="translate(192.359566, 205.67174)"><g><path d="M 7.125 0.1875 C 5.863281 0.1875 4.765625 -0.0976562 3.828125 -0.671875 C 2.898438 -1.242188 2.179688 -2.054688 1.671875 -3.109375 C 1.171875 -4.171875 0.921875 -5.421875 0.921875 -6.859375 C 0.921875 -8.328125 1.1875 -9.59375 1.71875 -10.65625 C 2.25 -11.726562 2.988281 -12.550781 3.9375 -13.125 C 4.894531 -13.707031 6.007812 -14 7.28125 -14 C 8.101562 -14 8.851562 -13.867188 9.53125 -13.609375 C 10.207031 -13.347656 10.789062 -12.988281 11.28125 -12.53125 C 11.78125 -12.082031 12.171875 -11.570312 12.453125 -11 C 12.742188 -10.425781 12.898438 -9.835938 12.921875 -9.234375 L 9.984375 -9.234375 C 9.898438 -9.671875 9.734375 -10.070312 9.484375 -10.4375 C 9.242188 -10.800781 8.929688 -11.09375 8.546875 -11.3125 C 8.171875 -11.53125 7.726562 -11.640625 7.21875 -11.640625 C 6.601562 -11.640625 6.046875 -11.476562 5.546875 -11.15625 C 5.054688 -10.84375 4.664062 -10.34375 4.375 -9.65625 C 4.09375 -8.96875 3.953125 -8.0625 3.953125 -6.9375 C 3.953125 -6.03125 4.046875 -5.273438 4.234375 -4.671875 C 4.421875 -4.066406 4.671875 -3.585938 4.984375 -3.234375 C 5.304688 -2.878906 5.671875 -2.628906 6.078125 -2.484375 C 6.484375 -2.335938 6.898438 -2.265625 7.328125 -2.265625 C 7.734375 -2.265625 8.097656 -2.332031 8.421875 -2.46875 C 8.742188 -2.601562 9.019531 -2.78125 9.25 -3 C 9.476562 -3.21875 9.660156 -3.453125 9.796875 -3.703125 C 9.929688 -3.960938 10.015625 -4.21875 10.046875 -4.46875 L 10.15625 -5.3125 L 7.296875 -5.3125 L 7.296875 -7.234375 L 13.078125 -7.203125 L 13.078125 0 L 11.171875 0 L 11.171875 -1.796875 C 10.941406 -1.492188 10.648438 -1.1875 10.296875 -0.875 C 9.953125 -0.5625 9.523438 -0.304688 9.015625 -0.109375 C 8.503906 0.0859375 7.875 0.1875 7.125 0.1875 Z M 7.125 0.1875 "/></g></g></g><g fill="#ffffff" fill-opacity="1"><g transform="translate(206.848735, 205.67174)"><g><path d="M 6.734375 0.1875 C 6.046875 0.1875 5.375 0.101562 4.71875 -0.0625 C 4.070312 -0.238281 3.476562 -0.5 2.9375 -0.84375 C 2.394531 -1.1875 1.945312 -1.613281 1.59375 -2.125 C 1.238281 -2.644531 1.023438 -3.25 0.953125 -3.9375 L 3.8125 -3.9375 C 3.90625 -3.519531 4.082031 -3.164062 4.34375 -2.875 C 4.613281 -2.59375 4.953125 -2.375 5.359375 -2.21875 C 5.765625 -2.070312 6.21875 -2 6.71875 -2 C 7.226562 -2 7.691406 -2.0625 8.109375 -2.1875 C 8.535156 -2.3125 8.875 -2.503906 9.125 -2.765625 C 9.382812 -3.023438 9.515625 -3.347656 9.515625 -3.734375 C 9.515625 -4.085938 9.410156 -4.375 9.203125 -4.59375 C 8.992188 -4.8125 8.710938 -4.988281 8.359375 -5.125 C 8.015625 -5.269531 7.617188 -5.390625 7.171875 -5.484375 L 4.78125 -5.96875 C 3.738281 -6.164062 2.910156 -6.578125 2.296875 -7.203125 C 1.691406 -7.835938 1.378906 -8.6875 1.359375 -9.75 C 1.347656 -10.613281 1.578125 -11.363281 2.046875 -12 C 2.515625 -12.632812 3.148438 -13.117188 3.953125 -13.453125 C 4.765625 -13.796875 5.664062 -13.96875 6.65625 -13.96875 C 7.851562 -13.96875 8.859375 -13.78125 9.671875 -13.40625 C 10.484375 -13.039062 11.097656 -12.539062 11.515625 -11.90625 C 11.941406 -11.269531 12.160156 -10.566406 12.171875 -9.796875 L 9.375 -9.796875 C 9.320312 -10.273438 9.175781 -10.65625 8.9375 -10.9375 C 8.695312 -11.226562 8.382812 -11.4375 8 -11.5625 C 7.625 -11.695312 7.195312 -11.765625 6.71875 -11.765625 C 6.34375 -11.765625 6.003906 -11.722656 5.703125 -11.640625 C 5.398438 -11.554688 5.144531 -11.4375 4.9375 -11.28125 C 4.726562 -11.132812 4.566406 -10.957031 4.453125 -10.75 C 4.335938 -10.550781 4.28125 -10.328125 4.28125 -10.078125 C 4.28125 -9.671875 4.410156 -9.34375 4.671875 -9.09375 C 4.941406 -8.84375 5.441406 -8.640625 6.171875 -8.484375 L 8.546875 -8 C 9.390625 -7.832031 10.0625 -7.585938 10.5625 -7.265625 C 11.0625 -6.941406 11.4375 -6.578125 11.6875 -6.171875 C 11.9375 -5.765625 12.101562 -5.347656 12.1875 -4.921875 C 12.269531 -4.492188 12.3125 -4.101562 12.3125 -3.75 C 12.3125 -3.007812 12.078125 -2.335938 11.609375 -1.734375 C 11.140625 -1.140625 10.488281 -0.671875 9.65625 -0.328125 C 8.820312 0.015625 7.847656 0.1875 6.734375 0.1875 Z M 6.734375 0.1875 "/></g></g></g><g fill="#ffffff" fill-opacity="1"><g transform="translate(166.817396, 216.481019)"><g><path d="M 3.953125 -1.578125 C 3.953125 -1.222656 3.890625 -0.921875 3.765625 -0.671875 C 3.648438 -0.429688 3.46875 -0.25 3.21875 -0.125 C 2.976562 0 2.664062 0.0625 2.28125 0.0625 C 1.882812 0.0625 1.5625 0 1.3125 -0.125 C 1.0625 -0.257812 0.878906 -0.453125 0.765625 -0.703125 C 0.660156 -0.960938 0.609375 -1.273438 0.609375 -1.640625 L 0.609375 -4.578125 L 1.21875 -4.578125 L 1.21875 -1.546875 C 1.21875 -1.179688 1.304688 -0.90625 1.484375 -0.71875 C 1.671875 -0.539062 1.9375 -0.453125 2.28125 -0.453125 C 2.507812 -0.453125 2.703125 -0.488281 2.859375 -0.5625 C 3.023438 -0.644531 3.148438 -0.769531 3.234375 -0.9375 C 3.316406 -1.101562 3.359375 -1.304688 3.359375 -1.546875 L 3.359375 -4.578125 L 3.953125 -4.578125 Z M 3.953125 -1.578125 "/></g></g></g><g fill="#ffffff" fill-opacity="1"><g transform="translate(171.814282, 216.481019)"><g><path d="M 3.578125 -4.578125 L 4.171875 -4.578125 L 4.171875 0 L 3.640625 0 L 1.1875 -3.609375 L 1.1875 0 L 0.609375 0 L 0.609375 -4.578125 L 1.171875 -4.578125 L 3.578125 -1.015625 Z M 3.578125 -4.578125 "/></g></g></g><g fill="#ffffff" fill-opacity="1"><g transform="translate(177.149356, 216.481019)"><g><path d="M 0.609375 -4.578125 L 1.203125 -4.578125 L 1.203125 -0.53125 L 3.359375 -0.53125 L 3.359375 0 L 0.609375 0 Z M 0.609375 -4.578125 "/></g></g></g><g fill="#ffffff" fill-opacity="1"><g transform="translate(181.368744, 216.481019)"><g><path d="M 2.328125 0.0625 C 1.921875 0.0625 1.566406 -0.0234375 1.265625 -0.203125 C 0.972656 -0.390625 0.742188 -0.65625 0.578125 -1 C 0.421875 -1.351562 0.34375 -1.78125 0.34375 -2.28125 C 0.34375 -2.78125 0.421875 -3.203125 0.578125 -3.546875 C 0.742188 -3.898438 0.972656 -4.171875 1.265625 -4.359375 C 1.566406 -4.546875 1.921875 -4.640625 2.328125 -4.640625 C 2.734375 -4.640625 3.082031 -4.546875 3.375 -4.359375 C 3.675781 -4.171875 3.90625 -3.898438 4.0625 -3.546875 C 4.21875 -3.203125 4.296875 -2.78125 4.296875 -2.28125 C 4.296875 -1.78125 4.21875 -1.351562 4.0625 -1 C 3.90625 -0.65625 3.675781 -0.390625 3.375 -0.203125 C 3.082031 -0.0234375 2.734375 0.0625 2.328125 0.0625 Z M 2.328125 -0.453125 C 2.609375 -0.453125 2.847656 -0.515625 3.046875 -0.640625 C 3.242188 -0.765625 3.394531 -0.960938 3.5 -1.234375 C 3.601562 -1.503906 3.65625 -1.847656 3.65625 -2.265625 C 3.65625 -2.691406 3.601562 -3.039062 3.5 -3.3125 C 3.394531 -3.59375 3.242188 -3.796875 3.046875 -3.921875 C 2.847656 -4.054688 2.609375 -4.125 2.328125 -4.125 C 2.046875 -4.125 1.804688 -4.054688 1.609375 -3.921875 C 1.410156 -3.796875 1.253906 -3.59375 1.140625 -3.3125 C 1.035156 -3.039062 0.984375 -2.691406 0.984375 -2.265625 C 0.984375 -1.847656 1.035156 -1.503906 1.140625 -1.234375 C 1.253906 -0.960938 1.410156 -0.765625 1.609375 -0.640625 C 1.804688 -0.515625 2.046875 -0.453125 2.328125 -0.453125 Z M 2.328125 -0.453125 "/></g></g></g><g fill="#ffffff" fill-opacity="1"><g transform="translate(186.577392, 216.481019)"><g><path d="M 2.28125 -4.640625 C 2.601562 -4.640625 2.890625 -4.570312 3.140625 -4.4375 C 3.390625 -4.300781 3.585938 -4.117188 3.734375 -3.890625 C 3.890625 -3.671875 3.984375 -3.425781 4.015625 -3.15625 L 3.390625 -3.15625 C 3.359375 -3.34375 3.296875 -3.507812 3.203125 -3.65625 C 3.109375 -3.800781 2.984375 -3.914062 2.828125 -4 C 2.671875 -4.082031 2.484375 -4.125 2.265625 -4.125 C 1.992188 -4.125 1.757812 -4.054688 1.5625 -3.921875 C 1.375 -3.796875 1.226562 -3.597656 1.125 -3.328125 C 1.03125 -3.066406 0.984375 -2.722656 0.984375 -2.296875 C 0.984375 -1.660156 1.09375 -1.191406 1.3125 -0.890625 C 1.53125 -0.597656 1.847656 -0.453125 2.265625 -0.453125 C 2.484375 -0.453125 2.671875 -0.492188 2.828125 -0.578125 C 2.984375 -0.671875 3.109375 -0.789062 3.203125 -0.9375 C 3.296875 -1.09375 3.359375 -1.257812 3.390625 -1.4375 L 4.015625 -1.4375 C 3.992188 -1.25 3.941406 -1.0625 3.859375 -0.875 C 3.773438 -0.695312 3.660156 -0.535156 3.515625 -0.390625 C 3.378906 -0.253906 3.207031 -0.144531 3 -0.0625 C 2.800781 0.0195312 2.5625 0.0625 2.28125 0.0625 C 1.875 0.0625 1.523438 -0.03125 1.234375 -0.21875 C 0.941406 -0.40625 0.71875 -0.675781 0.5625 -1.03125 C 0.414062 -1.382812 0.34375 -1.804688 0.34375 -2.296875 C 0.34375 -2.796875 0.414062 -3.21875 0.5625 -3.5625 C 0.71875 -3.914062 0.941406 -4.179688 1.234375 -4.359375 C 1.523438 -4.546875 1.875 -4.640625 2.28125 -4.640625 Z M 2.28125 -4.640625 "/></g></g></g><g fill="#ffffff" fill-opacity="1"><g transform="translate(191.498427, 216.481019)"><g><path d="M 4.09375 0 L 3.4375 0 L 2 -2.34375 L 1.21875 -1.4375 L 1.21875 0 L 0.609375 0 L 0.609375 -4.578125 L 1.21875 -4.578125 L 1.21875 -2.203125 L 3.265625 -4.578125 L 3.96875 -4.578125 L 2.4375 -2.78125 Z M 4.09375 0 "/></g></g></g><g fill="#ffffff" fill-opacity="1"><g transform="translate(196.378374, 216.481019)"><g/></g></g><g fill="#ffffff" fill-opacity="1"><g transform="translate(198.404311, 216.481019)"><g><path d="M 0.140625 -4.03125 L 0.140625 -4.578125 L 3.609375 -4.578125 L 3.609375 -4.03125 L 2.21875 -4.03125 L 2.21875 0 L 1.625 0 L 1.625 -4.03125 Z M 0.140625 -4.03125 "/></g></g></g><g fill="#ffffff" fill-opacity="1"><g transform="translate(202.724838, 216.481019)"><g><path d="M 3.65625 -2.109375 L 1.1875 -2.109375 L 1.1875 0 L 0.609375 0 L 0.609375 -4.578125 L 1.1875 -4.578125 L 1.1875 -2.625 L 3.65625 -2.625 L 3.65625 -4.578125 L 4.25 -4.578125 L 4.25 0 L 3.65625 0 Z M 3.65625 -2.109375 "/></g></g></g><g fill="#ffffff" fill-opacity="1"><g transform="translate(208.135765, 216.481019)"><g><path d="M 0.609375 0 L 0.609375 -4.578125 L 3.484375 -4.578125 L 3.484375 -4.0625 L 1.1875 -4.0625 L 1.1875 -2.5625 L 3.265625 -2.5625 L 3.265625 -2.046875 L 1.1875 -2.046875 L 1.1875 -0.53125 L 3.546875 -0.515625 L 3.546875 0 Z M 0.609375 0 "/></g></g></g><g fill="#ffffff" fill-opacity="1"><g transform="translate(212.626958, 216.481019)"><g/></g></g><g fill="#ffffff" fill-opacity="1"><g transform="translate(214.652895, 216.481019)"><g><path d="M 2.15625 0.0625 C 1.9375 0.0625 1.726562 0.0351562 1.53125 -0.015625 C 1.332031 -0.0664062 1.148438 -0.144531 0.984375 -0.25 C 0.816406 -0.363281 0.675781 -0.5 0.5625 -0.65625 C 0.457031 -0.820312 0.390625 -1.007812 0.359375 -1.21875 L 0.984375 -1.21875 C 1.015625 -1.039062 1.085938 -0.890625 1.203125 -0.765625 C 1.316406 -0.648438 1.453125 -0.5625 1.609375 -0.5 C 1.773438 -0.445312 1.957031 -0.421875 2.15625 -0.421875 C 2.375 -0.421875 2.566406 -0.453125 2.734375 -0.515625 C 2.898438 -0.578125 3.03125 -0.660156 3.125 -0.765625 C 3.226562 -0.878906 3.28125 -1.015625 3.28125 -1.171875 C 3.28125 -1.304688 3.25 -1.425781 3.1875 -1.53125 C 3.125 -1.632812 3.03125 -1.71875 2.90625 -1.78125 C 2.789062 -1.851562 2.648438 -1.90625 2.484375 -1.9375 L 1.59375 -2.15625 C 1.25 -2.226562 0.984375 -2.359375 0.796875 -2.546875 C 0.609375 -2.734375 0.507812 -2.984375 0.5 -3.296875 C 0.5 -3.566406 0.566406 -3.800781 0.703125 -4 C 0.847656 -4.195312 1.039062 -4.347656 1.28125 -4.453125 C 1.53125 -4.566406 1.816406 -4.625 2.140625 -4.625 C 2.503906 -4.625 2.8125 -4.5625 3.0625 -4.4375 C 3.3125 -4.320312 3.5 -4.160156 3.625 -3.953125 C 3.75 -3.753906 3.8125 -3.539062 3.8125 -3.3125 L 3.203125 -3.3125 C 3.191406 -3.507812 3.132812 -3.671875 3.03125 -3.796875 C 2.925781 -3.921875 2.796875 -4.007812 2.640625 -4.0625 C 2.484375 -4.113281 2.316406 -4.140625 2.140625 -4.140625 C 2.003906 -4.140625 1.875 -4.117188 1.75 -4.078125 C 1.632812 -4.046875 1.53125 -4 1.4375 -3.9375 C 1.34375 -3.875 1.265625 -3.789062 1.203125 -3.6875 C 1.148438 -3.59375 1.125 -3.484375 1.125 -3.359375 C 1.125 -3.191406 1.175781 -3.054688 1.28125 -2.953125 C 1.394531 -2.847656 1.601562 -2.757812 1.90625 -2.6875 L 2.78125 -2.484375 C 3 -2.429688 3.179688 -2.359375 3.328125 -2.265625 C 3.472656 -2.171875 3.582031 -2.0625 3.65625 -1.9375 C 3.738281 -1.820312 3.796875 -1.695312 3.828125 -1.5625 C 3.859375 -1.4375 3.875 -1.3125 3.875 -1.1875 C 3.875 -0.945312 3.804688 -0.734375 3.671875 -0.546875 C 3.535156 -0.359375 3.335938 -0.207031 3.078125 -0.09375 C 2.828125 0.0078125 2.519531 0.0625 2.15625 0.0625 Z M 2.15625 0.0625 "/></g></g></g><g fill="#ffffff" fill-opacity="1"><g transform="translate(219.479117, 216.481019)"><g><path d="M 0.140625 -4.03125 L 0.140625 -4.578125 L 3.609375 -4.578125 L 3.609375 -4.03125 L 2.21875 -4.03125 L 2.21875 0 L 1.625 0 L 1.625 -4.03125 Z M 0.140625 -4.03125 "/></g></g></g><g fill="#ffffff" fill-opacity="1"><g transform="translate(223.799644, 216.481019)"><g><path d="M 2.328125 0.0625 C 1.921875 0.0625 1.566406 -0.0234375 1.265625 -0.203125 C 0.972656 -0.390625 0.742188 -0.65625 0.578125 -1 C 0.421875 -1.351562 0.34375 -1.78125 0.34375 -2.28125 C 0.34375 -2.78125 0.421875 -3.203125 0.578125 -3.546875 C 0.742188 -3.898438 0.972656 -4.171875 1.265625 -4.359375 C 1.566406 -4.546875 1.921875 -4.640625 2.328125 -4.640625 C 2.734375 -4.640625 3.082031 -4.546875 3.375 -4.359375 C 3.675781 -4.171875 3.90625 -3.898438 4.0625 -3.546875 C 4.21875 -3.203125 4.296875 -2.78125 4.296875 -2.28125 C 4.296875 -1.78125 4.21875 -1.351562 4.0625 -1 C 3.90625 -0.65625 3.675781 -0.390625 3.375 -0.203125 C 3.082031 -0.0234375 2.734375 0.0625 2.328125 0.0625 Z M 2.328125 -0.453125 C 2.609375 -0.453125 2.847656 -0.515625 3.046875 -0.640625 C 3.242188 -0.765625 3.394531 -0.960938 3.5 -1.234375 C 3.601562 -1.503906 3.65625 -1.847656 3.65625 -2.265625 C 3.65625 -2.691406 3.601562 -3.039062 3.5 -3.3125 C 3.394531 -3.59375 3.242188 -3.796875 3.046875 -3.921875 C 2.847656 -4.054688 2.609375 -4.125 2.328125 -4.125 C 2.046875 -4.125 1.804688 -4.054688 1.609375 -3.921875 C 1.410156 -3.796875 1.253906 -3.59375 1.140625 -3.3125 C 1.035156 -3.039062 0.984375 -2.691406 0.984375 -2.265625 C 0.984375 -1.847656 1.035156 -1.503906 1.140625 -1.234375 C 1.253906 -0.960938 1.410156 -0.765625 1.609375 -0.640625 C 1.804688 -0.515625 2.046875 -0.453125 2.328125 -0.453125 Z M 2.328125 -0.453125 "/></g></g></g><g fill="#ffffff" fill-opacity="1"><g transform="translate(229.008294, 216.481019)"><g><path d="M 3.875 0 L 3.25 0 L 2.421875 -1.96875 L 1.1875 -1.96875 L 1.1875 0 L 0.609375 0 L 0.609375 -4.578125 L 2.375 -4.578125 C 2.707031 -4.578125 2.984375 -4.523438 3.203125 -4.421875 C 3.421875 -4.328125 3.582031 -4.1875 3.6875 -4 C 3.800781 -3.8125 3.859375 -3.585938 3.859375 -3.328125 C 3.859375 -3.078125 3.8125 -2.867188 3.71875 -2.703125 C 3.632812 -2.535156 3.523438 -2.398438 3.390625 -2.296875 C 3.265625 -2.203125 3.128906 -2.128906 2.984375 -2.078125 Z M 2.1875 -2.453125 C 2.53125 -2.453125 2.796875 -2.519531 2.984375 -2.65625 C 3.171875 -2.800781 3.265625 -3.015625 3.265625 -3.296875 C 3.265625 -3.566406 3.179688 -3.765625 3.015625 -3.890625 C 2.847656 -4.023438 2.617188 -4.09375 2.328125 -4.09375 L 1.1875 -4.09375 L 1.1875 -2.453125 Z M 2.1875 -2.453125 "/></g></g></g><g fill="#ffffff" fill-opacity="1"><g transform="translate(233.853477, 216.481019)"><g><path d="M 3.765625 -4.578125 L 2.21875 -1.953125 L 2.21875 0 L 1.640625 0 L 1.640625 -1.953125 L 0.078125 -4.578125 L 0.71875 -4.578125 L 1.9375 -2.46875 L 3.125 -4.578125 Z M 3.765625 -4.578125 "/></g></g></g><g fill="#ffffff" fill-opacity="1"><g transform="translate(238.259337, 216.481019)"><g/></g></g><g fill="#ffffff" fill-opacity="1"><g transform="translate(240.285274, 216.481019)"><g><path d="M 2.328125 0.0625 C 1.921875 0.0625 1.566406 -0.0234375 1.265625 -0.203125 C 0.972656 -0.390625 0.742188 -0.65625 0.578125 -1 C 0.421875 -1.351562 0.34375 -1.78125 0.34375 -2.28125 C 0.34375 -2.78125 0.421875 -3.203125 0.578125 -3.546875 C 0.742188 -3.898438 0.972656 -4.171875 1.265625 -4.359375 C 1.566406 -4.546875 1.921875 -4.640625 2.328125 -4.640625 C 2.734375 -4.640625 3.082031 -4.546875 3.375 -4.359375 C 3.675781 -4.171875 3.90625 -3.898438 4.0625 -3.546875 C 4.21875 -3.203125 4.296875 -2.78125 4.296875 -2.28125 C 4.296875 -1.78125 4.21875 -1.351562 4.0625 -1 C 3.90625 -0.65625 3.675781 -0.390625 3.375 -0.203125 C 3.082031 -0.0234375 2.734375 0.0625 2.328125 0.0625 Z M 2.328125 -0.453125 C 2.609375 -0.453125 2.847656 -0.515625 3.046875 -0.640625 C 3.242188 -0.765625 3.394531 -0.960938 3.5 -1.234375 C 3.601562 -1.503906 3.65625 -1.847656 3.65625 -2.265625 C 3.65625 -2.691406 3.601562 -3.039062 3.5 -3.3125 C 3.394531 -3.59375 3.242188 -3.796875 3.046875 -3.921875 C 2.847656 -4.054688 2.609375 -4.125 2.328125 -4.125 C 2.046875 -4.125 1.804688 -4.054688 1.609375 -3.921875 C 1.410156 -3.796875 1.253906 -3.59375 1.140625 -3.3125 C 1.035156 -3.039062 0.984375 -2.691406 0.984375 -2.265625 C 0.984375 -1.847656 1.035156 -1.503906 1.140625 -1.234375 C 1.253906 -0.960938 1.410156 -0.765625 1.609375 -0.640625 C 1.804688 -0.515625 2.046875 -0.453125 2.328125 -0.453125 Z M 2.328125 -0.453125 "/></g></g></g><g fill="#ffffff" fill-opacity="1"><g transform="translate(245.493923, 216.481019)"><g><path d="M 0.609375 -4.578125 L 3.453125 -4.578125 L 3.453125 -4.0625 L 1.203125 -4.0625 L 1.203125 -2.546875 L 3.21875 -2.546875 L 3.21875 -2.046875 L 1.203125 -2.046875 L 1.203125 0 L 0.609375 0 Z M 0.609375 -4.578125 "/></g></g></g><g fill="#ffffff" fill-opacity="1"><g transform="translate(249.817609, 216.481019)"><g/></g></g><g fill="#ffffff" fill-opacity="1"><g transform="translate(251.843546, 216.481019)"><g><path d="M 3.765625 -4.578125 L 2.21875 -1.953125 L 2.21875 0 L 1.640625 0 L 1.640625 -1.953125 L 0.078125 -4.578125 L 0.71875 -4.578125 L 1.9375 -2.46875 L 3.125 -4.578125 Z M 3.765625 -4.578125 "/></g></g></g><g fill="#ffffff" fill-opacity="1"><g transform="translate(256.24941, 216.481019)"><g><path d="M 2.328125 0.0625 C 1.921875 0.0625 1.566406 -0.0234375 1.265625 -0.203125 C 0.972656 -0.390625 0.742188 -0.65625 0.578125 -1 C 0.421875 -1.351562 0.34375 -1.78125 0.34375 -2.28125 C 0.34375 -2.78125 0.421875 -3.203125 0.578125 -3.546875 C 0.742188 -3.898438 0.972656 -4.171875 1.265625 -4.359375 C 1.566406 -4.546875 1.921875 -4.640625 2.328125 -4.640625 C 2.734375 -4.640625 3.082031 -4.546875 3.375 -4.359375 C 3.675781 -4.171875 3.90625 -3.898438 4.0625 -3.546875 C 4.21875 -3.203125 4.296875 -2.78125 4.296875 -2.28125 C 4.296875 -1.78125 4.21875 -1.351562 4.0625 -1 C 3.90625 -0.65625 3.675781 -0.390625 3.375 -0.203125 C 3.082031 -0.0234375 2.734375 0.0625 2.328125 0.0625 Z M 2.328125 -0.453125 C 2.609375 -0.453125 2.847656 -0.515625 3.046875 -0.640625 C 3.242188 -0.765625 3.394531 -0.960938 3.5 -1.234375 C 3.601562 -1.503906 3.65625 -1.847656 3.65625 -2.265625 C 3.65625 -2.691406 3.601562 -3.039062 3.5 -3.3125 C 3.394531 -3.59375 3.242188 -3.796875 3.046875 -3.921875 C 2.847656 -4.054688 2.609375 -4.125 2.328125 -4.125 C 2.046875 -4.125 1.804688 -4.054688 1.609375 -3.921875 C 1.410156 -3.796875 1.253906 -3.59375 1.140625 -3.3125 C 1.035156 -3.039062 0.984375 -2.691406 0.984375 -2.265625 C 0.984375 -1.847656 1.035156 -1.503906 1.140625 -1.234375 C 1.253906 -0.960938 1.410156 -0.765625 1.609375 -0.640625 C 1.804688 -0.515625 2.046875 -0.453125 2.328125 -0.453125 Z M 2.328125 -0.453125 "/></g></g></g><g fill="#ffffff" fill-opacity="1"><g transform="translate(261.45806, 216.481019)"><g><path d="M 3.953125 -1.578125 C 3.953125 -1.222656 3.890625 -0.921875 3.765625 -0.671875 C 3.648438 -0.429688 3.46875 -0.25 3.21875 -0.125 C 2.976562 0 2.664062 0.0625 2.28125 0.0625 C 1.882812 0.0625 1.5625 0 1.3125 -0.125 C 1.0625 -0.257812 0.878906 -0.453125 0.765625 -0.703125 C 0.660156 -0.960938 0.609375 -1.273438 0.609375 -1.640625 L 0.609375 -4.578125 L 1.21875 -4.578125 L 1.21875 -1.546875 C 1.21875 -1.179688 1.304688 -0.90625 1.484375 -0.71875 C 1.671875 -0.539062 1.9375 -0.453125 2.28125 -0.453125 C 2.507812 -0.453125 2.703125 -0.488281 2.859375 -0.5625 C 3.023438 -0.644531 3.148438 -0.769531 3.234375 -0.9375 C 3.316406 -1.101562 3.359375 -1.304688 3.359375 -1.546875 L 3.359375 -4.578125 L 3.953125 -4.578125 Z M 3.953125 -1.578125 "/></g></g></g><g fill="#ffffff" fill-opacity="1"><g transform="translate(266.454947, 216.481019)"><g><path d="M 3.875 0 L 3.25 0 L 2.421875 -1.96875 L 1.1875 -1.96875 L 1.1875 0 L 0.609375 0 L 0.609375 -4.578125 L 2.375 -4.578125 C 2.707031 -4.578125 2.984375 -4.523438 3.203125 -4.421875 C 3.421875 -4.328125 3.582031 -4.1875 3.6875 -4 C 3.800781 -3.8125 3.859375 -3.585938 3.859375 -3.328125 C 3.859375 -3.078125 3.8125 -2.867188 3.71875 -2.703125 C 3.632812 -2.535156 3.523438 -2.398438 3.390625 -2.296875 C 3.265625 -2.203125 3.128906 -2.128906 2.984375 -2.078125 Z M 2.1875 -2.453125 C 2.53125 -2.453125 2.796875 -2.519531 2.984375 -2.65625 C 3.171875 -2.800781 3.265625 -3.015625 3.265625 -3.296875 C 3.265625 -3.566406 3.179688 -3.765625 3.015625 -3.890625 C 2.847656 -4.023438 2.617188 -4.09375 2.328125 -4.09375 L 1.1875 -4.09375 L 1.1875 -2.453125 Z M 2.1875 -2.453125 "/></g></g></g><g fill="#ffffff" fill-opacity="1"><g transform="translate(271.30013, 216.481019)"><g/></g></g><g fill="#ffffff" fill-opacity="1"><g transform="translate(273.326067, 216.481019)"><g><path d="M 0.609375 -4.578125 L 1.203125 -4.578125 L 1.203125 -0.53125 L 3.359375 -0.53125 L 3.359375 0 L 0.609375 0 Z M 0.609375 -4.578125 "/></g></g></g><g fill="#ffffff" fill-opacity="1"><g transform="translate(277.545455, 216.481019)"><g><path d="M 2.328125 0.0625 C 1.921875 0.0625 1.566406 -0.0234375 1.265625 -0.203125 C 0.972656 -0.390625 0.742188 -0.65625 0.578125 -1 C 0.421875 -1.351562 0.34375 -1.78125 0.34375 -2.28125 C 0.34375 -2.78125 0.421875 -3.203125 0.578125 -3.546875 C 0.742188 -3.898438 0.972656 -4.171875 1.265625 -4.359375 C 1.566406 -4.546875 1.921875 -4.640625 2.328125 -4.640625 C 2.734375 -4.640625 3.082031 -4.546875 3.375 -4.359375 C 3.675781 -4.171875 3.90625 -3.898438 4.0625 -3.546875 C 4.21875 -3.203125 4.296875 -2.78125 4.296875 -2.28125 C 4.296875 -1.78125 4.21875 -1.351562 4.0625 -1 C 3.90625 -0.65625 3.675781 -0.390625 3.375 -0.203125 C 3.082031 -0.0234375 2.734375 0.0625 2.328125 0.0625 Z M 2.328125 -0.453125 C 2.609375 -0.453125 2.847656 -0.515625 3.046875 -0.640625 C 3.242188 -0.765625 3.394531 -0.960938 3.5 -1.234375 C 3.601562 -1.503906 3.65625 -1.847656 3.65625 -2.265625 C 3.65625 -2.691406 3.601562 -3.039062 3.5 -3.3125 C 3.394531 -3.59375 3.242188 -3.796875 3.046875 -3.921875 C 2.847656 -4.054688 2.609375 -4.125 2.328125 -4.125 C 2.046875 -4.125 1.804688 -4.054688 1.609375 -3.921875 C 1.410156 -3.796875 1.253906 -3.59375 1.140625 -3.3125 C 1.035156 -3.039062 0.984375 -2.691406 0.984375 -2.265625 C 0.984375 -1.847656 1.035156 -1.503906 1.140625 -1.234375 C 1.253906 -0.960938 1.410156 -0.765625 1.609375 -0.640625 C 1.804688 -0.515625 2.046875 -0.453125 2.328125 -0.453125 Z M 2.328125 -0.453125 "/></g></g></g><g fill="#ffffff" fill-opacity="1"><g transform="translate(282.754105, 216.481019)"><g><path d="M 2.28125 0.0625 C 1.882812 0.0625 1.539062 -0.0234375 1.25 -0.203125 C 0.957031 -0.390625 0.734375 -0.65625 0.578125 -1 C 0.421875 -1.351562 0.34375 -1.78125 0.34375 -2.28125 C 0.34375 -2.769531 0.421875 -3.191406 0.578125 -3.546875 C 0.734375 -3.898438 0.957031 -4.171875 1.25 -4.359375 C 1.550781 -4.546875 1.90625 -4.640625 2.3125 -4.640625 C 2.539062 -4.640625 2.753906 -4.597656 2.953125 -4.515625 C 3.160156 -4.429688 3.34375 -4.320312 3.5 -4.1875 C 3.65625 -4.050781 3.78125 -3.894531 3.875 -3.71875 C 3.96875 -3.539062 4.019531 -3.351562 4.03125 -3.15625 L 3.40625 -3.15625 C 3.375 -3.332031 3.304688 -3.492188 3.203125 -3.640625 C 3.109375 -3.785156 2.984375 -3.898438 2.828125 -3.984375 C 2.671875 -4.078125 2.492188 -4.125 2.296875 -4.125 C 2.035156 -4.125 1.804688 -4.054688 1.609375 -3.921875 C 1.410156 -3.796875 1.253906 -3.597656 1.140625 -3.328125 C 1.023438 -3.054688 0.96875 -2.707031 0.96875 -2.28125 C 0.96875 -1.957031 1 -1.679688 1.0625 -1.453125 C 1.132812 -1.222656 1.234375 -1.035156 1.359375 -0.890625 C 1.484375 -0.742188 1.625 -0.632812 1.78125 -0.5625 C 1.945312 -0.5 2.125 -0.46875 2.3125 -0.46875 C 2.507812 -0.46875 2.675781 -0.5 2.8125 -0.5625 C 2.957031 -0.632812 3.078125 -0.722656 3.171875 -0.828125 C 3.265625 -0.929688 3.335938 -1.046875 3.390625 -1.171875 C 3.441406 -1.296875 3.472656 -1.414062 3.484375 -1.53125 L 3.5 -1.9375 L 2.375 -1.9375 L 2.375 -2.359375 L 4.109375 -2.359375 L 4.109375 0 L 3.65625 0 L 3.65625 -0.703125 C 3.582031 -0.566406 3.484375 -0.441406 3.359375 -0.328125 C 3.234375 -0.210938 3.082031 -0.117188 2.90625 -0.046875 C 2.726562 0.0234375 2.519531 0.0625 2.28125 0.0625 Z M 2.28125 0.0625 "/></g></g></g><g fill="#ffffff" fill-opacity="1"><g transform="translate(287.956437, 216.481019)"><g><path d="M 2.15625 0.0625 C 1.9375 0.0625 1.726562 0.0351562 1.53125 -0.015625 C 1.332031 -0.0664062 1.148438 -0.144531 0.984375 -0.25 C 0.816406 -0.363281 0.675781 -0.5 0.5625 -0.65625 C 0.457031 -0.820312 0.390625 -1.007812 0.359375 -1.21875 L 0.984375 -1.21875 C 1.015625 -1.039062 1.085938 -0.890625 1.203125 -0.765625 C 1.316406 -0.648438 1.453125 -0.5625 1.609375 -0.5 C 1.773438 -0.445312 1.957031 -0.421875 2.15625 -0.421875 C 2.375 -0.421875 2.566406 -0.453125 2.734375 -0.515625 C 2.898438 -0.578125 3.03125 -0.660156 3.125 -0.765625 C 3.226562 -0.878906 3.28125 -1.015625 3.28125 -1.171875 C 3.28125 -1.304688 3.25 -1.425781 3.1875 -1.53125 C 3.125 -1.632812 3.03125 -1.71875 2.90625 -1.78125 C 2.789062 -1.851562 2.648438 -1.90625 2.484375 -1.9375 L 1.59375 -2.15625 C 1.25 -2.226562 0.984375 -2.359375 0.796875 -2.546875 C 0.609375 -2.734375 0.507812 -2.984375 0.5 -3.296875 C 0.5 -3.566406 0.566406 -3.800781 0.703125 -4 C 0.847656 -4.195312 1.039062 -4.347656 1.28125 -4.453125 C 1.53125 -4.566406 1.816406 -4.625 2.140625 -4.625 C 2.503906 -4.625 2.8125 -4.5625 3.0625 -4.4375 C 3.3125 -4.320312 3.5 -4.160156 3.625 -3.953125 C 3.75 -3.753906 3.8125 -3.539062 3.8125 -3.3125 L 3.203125 -3.3125 C 3.191406 -3.507812 3.132812 -3.671875 3.03125 -3.796875 C 2.925781 -3.921875 2.796875 -4.007812 2.640625 -4.0625 C 2.484375 -4.113281 2.316406 -4.140625 2.140625 -4.140625 C 2.003906 -4.140625 1.875 -4.117188 1.75 -4.078125 C 1.632812 -4.046875 1.53125 -4 1.4375 -3.9375 C 1.34375 -3.875 1.265625 -3.789062 1.203125 -3.6875 C 1.148438 -3.59375 1.125 -3.484375 1.125 -3.359375 C 1.125 -3.191406 1.175781 -3.054688 1.28125 -2.953125 C 1.394531 -2.847656 1.601562 -2.757812 1.90625 -2.6875 L 2.78125 -2.484375 C 3 -2.429688 3.179688 -2.359375 3.328125 -2.265625 C 3.472656 -2.171875 3.582031 -2.0625 3.65625 -1.9375 C 3.738281 -1.820312 3.796875 -1.695312 3.828125 -1.5625 C 3.859375 -1.4375 3.875 -1.3125 3.875 -1.1875 C 3.875 -0.945312 3.804688 -0.734375 3.671875 -0.546875 C 3.535156 -0.359375 3.335938 -0.207031 3.078125 -0.09375 C 2.828125 0.0078125 2.519531 0.0625 2.15625 0.0625 Z M 2.15625 0.0625 "/></g></g></g><g clip-path="url(#848a90fcc4)"><path fill="#ffffff" d="M 85.113281 167.550781 L 85.113281 151.394531 L 137.421875 151.394531 L 137.421875 167.550781 Z M 85.113281 167.550781 " fill-opacity="1" fill-rule="nonzero"/></g><g clip-path="url(#9e7b718066)"><path fill="#01c38d" d="M 57.21875 150.511719 L 73.371094 150.511719 L 73.371094 221.941406 L 57.21875 221.941406 Z M 57.21875 150.511719 " fill-opacity="1" fill-rule="nonzero"/></g><g clip-path="url(#227679e4b1)"><path fill="#01c38d" d="M 122.210938 169.425781 L 138.363281 169.425781 L 138.363281 202.554688 L 122.210938 202.554688 Z M 122.210938 169.425781 " fill-opacity="1" fill-rule="nonzero"/></g><g clip-path="url(#240a2ec354)"><path fill="#01c38d" d="M 75.867188 192.925781 L 75.867188 176.769531 L 105.96875 176.769531 L 105.96875 192.925781 Z M 75.867188 192.925781 " fill-opacity="1" fill-rule="nonzero"/></g><g clip-path="url(#350dd8b1f8)"><path fill="#01c38d" d="M 122.210938 221.480469 L 122.210938 205.328125 L 156.472656 205.328125 L 156.472656 221.480469 Z M 122.210938 221.480469 " fill-opacity="1" fill-rule="nonzero"/></g><g clip-path="url(#d3d271fdc6)"><path fill="#01c38d" d="M 103.589844 166.226562 L 119.742188 166.226562 L 119.742188 221.503906 L 103.589844 221.503906 Z M 103.589844 166.226562 " fill-opacity="1" fill-rule="nonzero"/></g><g clip-path="url(#d0d89a0ac5)"><path fill="#01c38d" d="M 86.03125 166.65625 L 86.03125 150.503906 L 138.339844 150.503906 L 138.339844 166.65625 Z M 86.03125 166.65625 " fill-opacity="1" fill-rule="nonzero"/></g></svg>