<svg xmlns="http://www.w3.org/2000/svg" xmlns:xlink="http://www.w3.org/1999/xlink" width="400" zoomAndPan="magnify" viewBox="0 0 300 299.999988" height="400" preserveAspectRatio="xMidYMid meet" version="1.0"><defs><clipPath id="0d2e86dfbb"><path d="M 9.191406 52.234375 L 82.761719 52.234375 L 82.761719 283 L 9.191406 283 Z M 9.191406 52.234375 " clip-rule="nonzero"/></clipPath><clipPath id="35a085c489"><path d="M 88.632812 111.027344 L 162.199219 111.027344 L 162.199219 203.175781 L 88.632812 203.175781 Z M 88.632812 111.027344 " clip-rule="nonzero"/></clipPath><clipPath id="0b5c640ce9"><path d="M 88.628906 209.042969 L 290.804688 209.042969 L 290.804688 282.613281 L 88.628906 282.613281 Z M 88.628906 209.042969 " clip-rule="nonzero"/></clipPath><clipPath id="da3b56815d"><path d="M 217.238281 52.234375 L 290.808594 52.234375 L 290.808594 203.175781 L 217.238281 203.175781 Z M 217.238281 52.234375 " clip-rule="nonzero"/></clipPath><clipPath id="bee63b81d1"><path d="M 162.199219 111.019531 L 217.238281 111.019531 L 217.238281 162.296875 L 162.199219 162.296875 Z M 162.199219 111.019531 " clip-rule="nonzero"/></clipPath><clipPath id="a82686bad9"><path d="M 88.632812 52.230469 L 211.425781 52.230469 L 211.425781 105.148438 L 88.632812 105.148438 Z M 88.632812 52.230469 " clip-rule="nonzero"/></clipPath></defs><g clip-path="url(#0d2e86dfbb)"><path fill="#01c38d" d="M 9.191406 52.234375 L 82.761719 52.234375 L 82.761719 282.996094 L 9.191406 282.996094 Z M 9.191406 52.234375 " fill-opacity="1" fill-rule="nonzero"/></g><g clip-path="url(#35a085c489)"><path fill="#01c38d" d="M 88.632812 111.027344 L 162.199219 111.027344 L 162.199219 203.273438 L 88.632812 203.273438 Z M 88.632812 111.027344 " fill-opacity="1" fill-rule="nonzero"/></g><g clip-path="url(#0b5c640ce9)"><path fill="#01c38d" d="M 88.628906 282.613281 L 88.628906 209.042969 L 290.9375 209.042969 L 290.9375 282.613281 Z M 88.628906 282.613281 " fill-opacity="1" fill-rule="nonzero"/></g><g clip-path="url(#da3b56815d)"><path fill="#01c38d" d="M 217.238281 52.234375 L 290.808594 52.234375 L 290.808594 203.105469 L 217.238281 203.105469 Z M 217.238281 52.234375 " fill-opacity="1" fill-rule="nonzero"/></g><g clip-path="url(#bee63b81d1)"><path fill="#01c38d" d="M 162.199219 162.296875 L 162.199219 111.019531 L 217.285156 111.019531 L 217.285156 162.296875 Z M 162.199219 162.296875 " fill-opacity="1" fill-rule="nonzero"/></g><g clip-path="url(#a82686bad9)"><path fill="#01c38d" d="M 88.632812 105.148438 L 88.632812 52.230469 L 211.417969 52.230469 L 211.417969 105.148438 Z M 88.632812 105.148438 " fill-opacity="1" fill-rule="nonzero"/></g></svg>
